# xmcd
#
# Track frame offsets: 
#        150
#        12359
#        25366
#        37250
#        50356
#        62630
#        74223
#        85977
#        95892
#        106910
#        117747
#        130212
#        141838
#        154660
#        167539
#        179724
#        192260
#        203804
#        216178
#        228456
#
# Disc length: 3209 seconds
#
# Revision: 0
# Processed by: cddbd v1.5.2PL0 Copyright (c) Steve Scherf et al.
# Submitted via: ExactAudioCopy v0.95a5
#
DISCID=340c8714
DTITLE=Hank Williams - Your Cheatin' Heart CD1
DYEAR=2006
DGENRE=Country
TTITLE0=Your Cheatin' Heart
TTITLE1=Jambalaya
TTITLE2=Take These Chains From My Heart
TTITLE3=Hey, Good Lookin'
TTITLE4=Half as Much
TTITLE5=Kaw-Liga
TTITLE6=You Win Again
TTITLE7=Honky Tonk Blues
TTITLE8=I'll Never Get Out of This World Alive
TTITLE9=I Can''t Help It
TTITLE10=Rootie Tootie
TTITLE11=A Mansion on the Hill
TTITLE12=I'm a Long Gone Daddy
TTITLE13=I Can't Get You Off My Mind
TTITLE14=Lost Highway
TTITLE15=I'm So Lonesome I Could Cry
TTITLE16=My Son Calls Another Man Daddy
TTITLE17=I Saw the Light
TTITLE18=Last Night I Heard You Crying in Your Sleep
TTITLE19=Move It On Over
EXTD=
EXTT0=
EXTT1=
EXTT2=
EXTT3=
EXTT4=
EXTT5=
EXTT6=
EXTT7=
EXTT8=
EXTT9=
EXTT10=
EXTT11=
EXTT12=
EXTT13=
EXTT14=
EXTT15=
EXTT16=
EXTT17=
EXTT18=
EXTT19=
PLAYORDER=
